<?xml version="1.0" standalone="no"?>
<!DOCTYPE svg PUBLIC "-//W3C//DTD SVG 20010904//EN"
 "http://www.w3.org/TR/2001/REC-SVG-20010904/DTD/svg10.dtd">
<svg version="1.0" xmlns="http://www.w3.org/2000/svg"
 width="512.000000pt" height="512.000000pt" viewBox="0 0 512.000000 512.000000"
 preserveAspectRatio="xMidYMid meet">
<metadata>
Created by potrace 1.16, written by Peter Selinger 2001-2019
</metadata>
<g transform="translate(0.000000,512.000000) scale(0.100000,-0.100000)"
fill="" stroke="none">
<path d="M433 5105 c-200 -54 -356 -209 -417 -414 -14 -49 -16 -224 -16 -1806
0 -1927 -4 -1794 62 -1932 45 -93 158 -206 251 -251 133 -64 98 -62 1017 -62
l837 0 22 128 c28 161 55 252 93 322 23 41 195 220 689 715 l659 660 0 1077 0
1076 -23 80 c-13 44 -39 106 -58 138 -48 82 -144 174 -225 216 -137 72 -44 68
-1515 67 -1103 0 -1333 -3 -1376 -14z m1389 -881 c130 -95 116 -280 -27 -357
-39 -22 -48 -22 -515 -22 -467 0 -476 0 -515 22 -83 44 -119 108 -113 199 5
78 41 136 108 171 l44 24 487 -3 487 -3 44 -31z m1009 -825 c83 -25 149 -113
149 -199 0 -86 -66 -174 -149 -199 -52 -15 -1979 -16 -2034 0 -46 13 -109 67
-131 113 -20 43 -21 128 -1 170 22 46 76 95 121 111 52 19 1984 22 2045 4z
m-880 -849 c124 -24 201 -142 168 -258 -16 -58 -82 -126 -136 -142 -27 -8
-211 -10 -620 -8 l-581 3 -44 31 c-151 110 -102 338 82 375 57 11 1070 10
1131 -1z"/>
<path d="M4425 2618 c-86 -31 -167 -107 -948 -887 -444 -443 -817 -821 -828
-839 -15 -23 -37 -124 -80 -365 -32 -182 -59 -349 -59 -370 0 -91 66 -157 157
-157 53 0 650 102 708 120 20 7 309 289 857 837 666 667 832 839 855 883 26
51 28 64 28 165 0 164 -13 186 -228 402 -203 203 -236 223 -357 222 -41 0 -88
-5 -105 -11z"/>
</g>
</svg>
